<?xml version="1.0" standalone="no"?><!DOCTYPE svg PUBLIC "-//W3C//DTD SVG 1.1//EN" "http://www.w3.org/Graphics/SVG/1.1/DTD/svg11.dtd"><svg t="1713822884694" class="icon" viewBox="0 0 1024 1024" version="1.1" xmlns="http://www.w3.org/2000/svg" p-id="12937" xmlns:xlink="http://www.w3.org/1999/xlink" width="200" height="200"><path d="M65.960851 765.603404l-49.457021-49.947234 292.711489-290.859574 188.459575 188.459574 251.969361-253.113191 49.674894 49.457021-301.426383 303.278298L308.997447 523.982979z" fill="#3B9DFF" p-id="12938"></path><path d="M519.244255 968.279149a484.057872 484.057872 0 0 1-365.426383-166.617872l53.324256-47.005958A413.412766 413.412766 0 1 0 105.885957 483.676596a429.099574 429.099574 0 0 0 3.268086 52.180425l-70.481703 8.932766a483.84 483.84 0 1 1 480.081703 423.053617z" fill="#3B9DFF" p-id="12939"></path><path d="M791.31234 857.436596l49.729362-49.729362 166.508936 166.563404-49.674893 49.729362z" fill="#3B9DFF" p-id="12940"></path></svg>